<svg id="Capa_1" data-name="Capa 1" xmlns="http://www.w3.org/2000/svg" viewBox="0 0 1017.6 356.71"><defs><style>.cls-1{fill:#fff;}</style></defs><title>arrows</title><path class="cls-1" d="M1.79,277.58,144.4,440.23c2.39,4.78,8.66,8.66,14,8.66H290.32c5.34,0,7.74-3.88,5.35-8.66L153.06,277.58c-2.39-4.78-2.39-12.54,0-17.32L295.67,100.83c2.39-4.78,0-8.65-5.35-8.65H158.41c-10,0-16.18,10.89-21.94,17.53C128.86,118.5,23.15,236.39,1.79,260.26-.6,265.05-.6,272.79,1.79,277.58Z" transform="translate(0 -92.18)"/><path class="cls-1" d="M656.17,100.83c2.39-4.77,0-8.65-5.35-8.65H518.9c-12.21,0-28.26,24.59-36.22,33.5-14,15.68-119.62,133.06-120.39,134.59-2.39,4.78-2.39,12.53,0,17.31L504.9,440.24c2.39,4.78,8.66,8.65,14,8.65H650.82c5.34,0,7.74-3.87,5.35-8.65L513.56,277.58c-2.39-4.78-2.39-12.53,0-17.31Z" transform="translate(0 -92.18)"/><path class="cls-1" d="M722.79,277.58,865.4,440.23c2.39,4.78,8.66,8.66,14,8.66h131.92c5.34,0,7.74-3.88,5.35-8.66L874.06,277.58c-2.39-4.78-2.39-12.54,0-17.32l142.61-159.43c2.39-4.78,0-8.65-5.35-8.65H879.41c-10,0-16.18,10.89-21.94,17.53-7.61,8.79-113.32,126.68-134.68,150.55C720.4,265.05,720.4,272.79,722.79,277.58Z" transform="translate(0 -92.18)"/></svg>