<svg id="Capa_1" data-name="Capa 1" xmlns="http://www.w3.org/2000/svg" viewBox="0 0 27.3 27.31"><defs><style>.cls-1{fill:#8dba69;}</style></defs><title>bidding_icon</title><path class="cls-1" d="M12.89,1h0a1.17,1.17,0,0,0-.07,1.59l0,0L2.28,13.09A1.18,1.18,0,0,0,.71,14.85l9.44,9.44a1.18,1.18,0,0,0,1.76-1.57l4.42-4.42,9.32,9.32A1.18,1.18,0,0,0,27.32,26L18,16.63l4.43-4.42,0,0A1.17,1.17,0,0,0,24,12.11h0a1.18,1.18,0,0,0,0-1.67L14.56,1A1.18,1.18,0,0,0,12.89,1Z" transform="translate(-0.37 -0.66)"/></svg>