<svg id="Capa_1" data-name="Capa 1" xmlns="http://www.w3.org/2000/svg" viewBox="0 0 438.86 512"><defs><style>.cls-1{fill:#515763;}</style></defs><title>alarm-bell</title><path class="cls-1" d="M474.13,450.36,448,385.07a127.1,127.1,0,0,1-9.16-47.53V219.43c0-81.93-54.53-150.63-128.93-173.81a54.68,54.68,0,0,0-107.85,0C127.67,68.8,73.14,137.5,73.14,219.43V337.54A127.1,127.1,0,0,1,64,385.07l-26.1,65.29a18.28,18.28,0,0,0,17,25.07h139C206.83,497.47,230,512,256,512s49.18-14.53,62.14-36.57h139a18.29,18.29,0,0,0,17-25.07Z" transform="translate(-36.57 0)"/></svg>