<?xml version="1.0" encoding="utf-8"?>
<!-- Generator: Adobe Illustrator 23.0.1, SVG Export Plug-In . SVG Version: 6.00 Build 0)  -->
<svg version="1.0" id="Capa_1" xmlns="http://www.w3.org/2000/svg" xmlns:xlink="http://www.w3.org/1999/xlink" x="0px" y="0px"
	 viewBox="0 0 29.7 29.7" style="enable-background:new 0 0 29.7 29.7;" xml:space="preserve">
<style type="text/css">
	.st0{fill:#8dba69;}
</style>
<g>
	<g>
		<path class="st0" d="M27.7,23.2c1.3-2.2,2-4.7,2-7.4c0-5.4-3-10.2-7.3-12.8c0,0,0,0-0.1-0.1c0,0,0,0-0.1,0c-2.2-1.2-4.7-2-7.3-2
			S9.7,1.7,7.5,3c0,0-0.1,0-0.1,0c0,0,0,0-0.1,0.1c-2.2,1.3-4,3.1-5.3,5.3c0,0,0,0-0.1,0.1c0,0,0,0.1,0,0.1c-1.2,2.2-2,4.7-2,7.3
			c0,0,0,0,0,0c0,0,0,0,0,0c0,2.6,0.7,5.1,2,7.4c0,0,0,0,0,0.1c0,0,0,0.1,0.1,0.1c0.6,1.1,1.4,2.1,2.3,3c0.2,0.2,0.5,0.3,0.8,0.3
			s0.6-0.1,0.8-0.3c0.4-0.4,0.4-1.1,0-1.6c-0.5-0.5-1-1.1-1.4-1.7L6.3,22c0.5-0.3,0.7-1,0.4-1.5c-0.3-0.5-1-0.7-1.5-0.4l-1.8,1.1
			c-0.6-1.3-1-2.8-1.1-4.2l2.1,0c0,0,0,0,0,0c0.6,0,1.1-0.5,1.1-1.1c0-0.6-0.5-1.1-1.1-1.1l-2.1,0c0.1-1.5,0.5-2.9,1.1-4.2l1.8,1.1
			c0.2,0.1,0.4,0.1,0.6,0.1c0.4,0,0.7-0.2,1-0.5C7,10.6,6.9,10,6.3,9.7L4.5,8.6c0.8-1.2,1.9-2.3,3.1-3.1l1.1,1.8
			c0.2,0.4,0.6,0.5,1,0.5c0.2,0,0.4,0,0.5-0.1c0.5-0.3,0.7-1,0.4-1.5L9.5,4.4c1.3-0.6,2.7-1,4.2-1.1v2.1c0,0.6,0.5,1.1,1.1,1.1
			s1.1-0.5,1.1-1.1V3.3c1.5,0.1,2.9,0.5,4.2,1.1l-1.1,1.8c-0.3,0.5-0.1,1.2,0.4,1.5c0.2,0.1,0.4,0.1,0.5,0.1c0.4,0,0.7-0.2,1-0.6
			l1.1-1.8c3,2.1,5,5.4,5.3,9.2h-2.1c-0.6,0-1.1,0.5-1.1,1.1c0,0.6,0.5,1.1,1.1,1.1h2.1c-0.1,1.5-0.5,2.9-1.1,4.2l-1.8-1.1
			c-0.5-0.3-1.2-0.1-1.5,0.4c-0.3,0.5-0.1,1.2,0.4,1.5l1.8,1.1c-0.4,0.6-0.9,1.2-1.4,1.7c-0.4,0.4-0.4,1.1,0,1.6
			c0.4,0.4,1.1,0.4,1.6,0c0.9-0.9,1.7-1.9,2.3-3C27.7,23.3,27.7,23.3,27.7,23.2C27.7,23.3,27.7,23.2,27.7,23.2z"/>
		<path class="st0" d="M16.1,14.1c-0.4-0.3-0.8-0.4-1.3-0.4c-1.2,0-2.2,1-2.2,2.2s1,2.2,2.2,2.2s2.2-1,2.2-2.2c0-0.1,0-0.1,0-0.2
			l7.3-5.3L16.1,14.1z M14.4,14.8L14.4,14.8C14.4,14.8,14.4,14.8,14.4,14.8z M13.7,15.9c0-0.4,0.2-0.7,0.6-0.9l1.1,1.9
			c-0.2,0.1-0.3,0.2-0.5,0.2C14.2,17,13.7,16.5,13.7,15.9z"/>
		<path class="st0" d="M20.3,24.3h-11c-0.6,0-1.1,0.5-1.1,1.1v2.2c0,0.6,0.5,1.1,1.1,1.1h11c0.6,0,1.1-0.5,1.1-1.1v-2.2
			C21.4,24.8,20.9,24.3,20.3,24.3z"/>
	</g>
</g>
</svg>
