<?xml version="1.0" encoding="utf-8"?>
<!-- Generator: Adobe Illustrator 23.0.1, SVG Export Plug-In . SVG Version: 6.00 Build 0)  -->
<svg version="1.1" id="Capa_1" xmlns="http://www.w3.org/2000/svg" xmlns:xlink="http://www.w3.org/1999/xlink" x="0px" y="0px"
	 viewBox="0 0 512 512" style="enable-background:new 0 0 512 512;" xml:space="preserve">
<style type="text/css">
	.st0{fill:#515763;}
</style>
<path class="st0" d="M474.1,450.4L448,385.1c-6.1-15.2-9.2-31.2-9.2-47.5V219.4c0-81.9-54.5-150.6-128.9-173.8
	C305.5,19.8,283.1,0,256,0c-27.1,0-49.5,19.8-53.9,45.6C127.7,68.8,73.1,137.5,73.1,219.4v118.1c0,16.4-3.1,32.4-9.2,47.5
	l-26.1,65.3c-2.3,5.6-1.6,12,1.8,17c3.4,5,9.1,8,15.1,8h139c13,22,36.1,36.6,62.1,36.6s49.2-14.5,62.1-36.6h139c6.1,0,11.7-3,15.1-8
	C475.7,462.4,476.4,456,474.1,450.4L474.1,450.4z M81.9,438.9l16.1-40.2c7.8-19.5,11.8-40.1,11.8-61.1V219.4
	c0-80.7,65.6-146.3,146.3-146.3s146.3,65.6,146.3,146.3v118.1c0,21,4,41.6,11.8,61.1l16.1,40.2H81.9z"/>
</svg>
